<?xml version="1.0" encoding="utf-8"?>
<!-- Generator: Adobe Illustrator 24.0.1, SVG Export Plug-In . SVG Version: 6.00 Build 0)  -->
<svg version="1.1" xmlns="http://www.w3.org/2000/svg" xmlns:xlink="http://www.w3.org/1999/xlink" x="0px" y="0px"
	 viewBox="0 0 512 512" style="enable-background:new 0 0 512 512;" xml:space="preserve">
<style type="text/css">
	.st0{fill:#D23C22;}
	.st1{fill:#FFFFFF;stroke:#000000;stroke-miterlimit:10;}
	.st2{fill:#FFFFFF;}
</style>
<g id="Layer_2">
	<path class="st0" d="M443.19,512.5H67.81c-37.73,0-68.31-30.59-68.31-68.31V67.81C-0.5,30.09,30.09-0.5,67.81-0.5h375.37
		c37.73,0,68.31,30.59,68.31,68.31v376.37C511.5,481.91,480.91,512.5,443.19,512.5z"/>
</g>
<g id="Layer_4">
	<path class="st1" d="M76.5,147.5"/>
</g>
<g id="Layer_3">
	<g>
		<g>
			<g>
				<path class="st2" d="M142.24,124.02c0,22.5,0,45,0,67.5c0,6.33,0,12.67,0,19c-0.12,3.3,0.56,6.39,2.07,9.25
					c0.97,2.98,2.62,5.55,4.96,7.72c2.17,2.34,4.75,3.99,7.72,4.96c2.86,1.5,5.94,2.19,9.25,2.07c2.13-0.29,4.25-0.57,6.38-0.86
					c4.07-1.14,7.6-3.2,10.59-6.17c4.31-4.7,7.03-10.47,7.03-16.97c0-22.5,0-45,0-67.5c0-6.33,0-12.67,0-19
					c0.12-3.3-0.56-6.39-2.07-9.25c-0.97-2.98-2.62-5.55-4.96-7.72c-2.17-2.34-4.75-3.99-7.72-4.96c-2.86-1.5-5.94-2.19-9.25-2.07
					c-2.13,0.29-4.25,0.57-6.38,0.86c-4.07,1.14-7.6,3.2-10.59,6.17C144.96,111.74,142.24,117.52,142.24,124.02L142.24,124.02z"/>
			</g>
		</g>
		<g>
			<g>
				<path class="st2" d="M167.39,235.98c22.73,0,45.46,0,68.18,0c6.41,0,12.82,0,19.23,0c3.3,0.12,6.39-0.56,9.25-2.07
					c2.98-0.97,5.55-2.62,7.72-4.96c2.34-2.17,3.99-4.75,4.96-7.72c1.5-2.86,2.19-5.94,2.07-9.25c-0.29-2.13-0.57-4.25-0.86-6.38
					c-1.14-4.07-3.2-7.6-6.17-10.59c-4.7-4.31-10.47-7.03-16.97-7.03c-22.73,0-45.46,0-68.18,0c-6.41,0-12.82,0-19.23,0
					c-3.3-0.12-6.39,0.56-9.25,2.07c-2.98,0.97-5.55,2.62-7.72,4.96c-2.34,2.17-3.99,4.75-4.96,7.72c-1.5,2.86-2.19,5.94-2.07,9.25
					c0.29,2.13,0.57,4.25,0.86,6.38c1.14,4.07,3.2,7.6,6.17,10.59C155.12,233.26,160.89,235.98,167.39,235.98L167.39,235.98z"/>
			</g>
		</g>
		<g>
			<g>
				<path class="st2" d="M232.87,214.59c0,22.5,0,45,0,67.5c0,6.33,0,12.67,0,19c-0.12,3.3,0.56,6.39,2.07,9.25
					c0.97,2.98,2.62,5.55,4.96,7.72c2.17,2.34,4.75,3.99,7.72,4.96c2.86,1.5,5.94,2.19,9.25,2.07c2.13-0.29,4.25-0.57,6.38-0.86
					c4.07-1.14,7.6-3.2,10.59-6.17c4.31-4.7,7.03-10.47,7.03-16.97c0-22.5,0-45,0-67.5c0-6.33,0-12.67,0-19
					c0.12-3.3-0.56-6.39-2.07-9.25c-0.97-2.98-2.62-5.55-4.96-7.72c-2.17-2.34-4.75-3.99-7.72-4.96c-2.86-1.5-5.94-2.19-9.25-2.07
					c-2.13,0.29-4.25,0.57-6.38,0.86c-4.07,1.14-7.6,3.2-10.59,6.17C235.59,202.32,232.87,208.09,232.87,214.59L232.87,214.59z"/>
			</g>
		</g>
		<g>
			<g>
				<path class="st2" d="M257.55,326.23c22.73,0,45.46,0,68.18,0c6.41,0,12.82,0,19.23,0c3.3,0.12,6.39-0.56,9.25-2.07
					c2.98-0.97,5.55-2.62,7.72-4.96c2.34-2.17,3.99-4.75,4.96-7.72c1.5-2.86,2.19-5.94,2.07-9.25c-0.29-2.13-0.57-4.25-0.86-6.38
					c-1.14-4.07-3.2-7.6-6.17-10.59c-4.7-4.31-10.47-7.03-16.97-7.03c-22.73,0-45.46,0-68.18,0c-6.41,0-12.82,0-19.23,0
					c-3.3-0.12-6.39,0.56-9.25,2.07c-2.98,0.97-5.55,2.62-7.72,4.96c-2.34,2.17-3.99,4.75-4.96,7.72c-1.5,2.86-2.19,5.94-2.07,9.25
					c0.29,2.13,0.57,4.25,0.86,6.38c1.14,4.07,3.2,7.6,6.17,10.59C245.28,323.51,251.05,326.23,257.55,326.23L257.55,326.23z"/>
			</g>
		</g>
		<g>
			<g>
				<path class="st2" d="M321.65,303.37c0,22.5,0,45,0,67.5c0,6.33,0,12.67,0,19c-0.12,3.3,0.56,6.39,2.07,9.25
					c0.97,2.98,2.62,5.55,4.96,7.72c2.17,2.34,4.75,3.99,7.72,4.96c2.86,1.5,5.94,2.19,9.25,2.07c2.13-0.29,4.25-0.57,6.38-0.86
					c4.07-1.14,7.6-3.2,10.59-6.17c4.31-4.7,7.03-10.47,7.03-16.97c0-22.5,0-45,0-67.5c0-6.33,0-12.67,0-19
					c0.12-3.3-0.56-6.39-2.07-9.25c-0.97-2.98-2.62-5.55-4.96-7.72c-2.17-2.34-4.75-3.99-7.72-4.96c-2.86-1.5-5.94-2.19-9.25-2.07
					c-2.13,0.29-4.25,0.57-6.38,0.86c-4.07,1.14-7.6,3.2-10.59,6.17C324.36,291.09,321.65,296.86,321.65,303.37L321.65,303.37z"/>
			</g>
		</g>
		<g>
			<g>
				<path class="st2" d="M346.32,415c22.73,0,45.46,0,68.18,0c6.41,0,12.82,0,19.23,0c3.3,0.12,6.39-0.56,9.25-2.07
					c2.98-0.97,5.55-2.62,7.72-4.96c2.34-2.17,3.99-4.75,4.96-7.72c1.5-2.86,2.19-5.94,2.07-9.25c-0.29-2.13-0.57-4.25-0.86-6.38
					c-1.14-4.07-3.2-7.6-6.17-10.59c-4.7-4.31-10.47-7.03-16.97-7.03c-22.73,0-45.46,0-68.18,0c-6.41,0-12.82,0-19.23,0
					c-3.3-0.12-6.39,0.56-9.25,2.07c-2.98,0.97-5.55,2.62-7.72,4.96c-2.34,2.17-3.99,4.75-4.96,7.72c-1.5,2.86-2.19,5.94-2.07,9.25
					c0.29,2.13,0.57,4.25,0.86,6.38c1.14,4.07,3.2,7.6,6.17,10.59C334.05,412.28,339.82,415,346.32,415L346.32,415z"/>
			</g>
		</g>
		<g>
			<g>
				<path class="st2" d="M77,145.63c22.73,0,45.46,0,68.18,0c6.41,0,12.82,0,19.23,0c3.3,0.12,6.39-0.56,9.25-2.07
					c2.98-0.97,5.55-2.62,7.72-4.96c2.34-2.17,3.99-4.75,4.96-7.72c1.5-2.86,2.19-5.94,2.07-9.25c-0.29-2.13-0.57-4.25-0.86-6.38
					c-1.14-4.07-3.2-7.6-6.17-10.59c-4.7-4.31-10.47-7.03-16.97-7.03c-22.73,0-45.46,0-68.18,0c-6.41,0-12.82,0-19.23,0
					c-3.3-0.12-6.39,0.56-9.25,2.07c-2.98,0.97-5.55,2.62-7.72,4.96c-2.34,2.17-3.99,4.75-4.96,7.72c-1.5,2.86-2.19,5.94-2.07,9.25
					c0.29,2.13,0.57,4.25,0.86,6.38c1.14,4.07,3.2,7.6,6.17,10.59C64.73,142.91,70.5,145.63,77,145.63L77,145.63z"/>
			</g>
		</g>
	</g>
</g>
</svg>
